<svg xmlns="http://www.w3.org/2000/svg" version="1.1" xmlns:xlink="http://www.w3.org/1999/xlink" xmlns:svgjs="http://svgjs.com/svgjs" width="512" height="512" x="0" y="0" viewBox="0 0 512 512" style="enable-background:new 0 0 512 512" xml:space="preserve" class=""><g><linearGradient id="a" x1="256" x2="256" y1="512" y2="0" gradientUnits="userSpaceOnUse"><stop stop-opacity="1" stop-color="#fd3acd" offset="0"></stop><stop stop-opacity="1" stop-color="#8da2ff" offset="1"></stop></linearGradient><linearGradient id="b" x1="256" x2="256" y1="449.984" y2="60" gradientUnits="userSpaceOnUse"><stop stop-opacity="1" stop-color="#4289f0" offset="0"></stop><stop stop-opacity="1" stop-color="#ffffff" offset="1"></stop></linearGradient><path fill="url(#a)" d="M406 0H106C81.186 0 61 20.186 61 45v240c0 24.814 20.186 45 45 45h300c24.814 0 45-20.186 45-45V45c0-24.814-20.186-45-45-45zm-30 452c-8.291 0-15 6.709-15 15v15H151v-15c0-8.291-6.709-15-15-15s-15 6.709-15 15v30c0 8.291 6.709 15 15 15h240c8.291 0 15-6.709 15-15v-30c0-8.291-6.709-15-15-15z" data-original="url(#a)" class=""></path><path fill="url(#b)" d="M305.395 364.395 271 398.789V285c0-8.291-6.709-15-15-15s-15 6.709-15 15v113.789l-34.395-34.395c-5.859-5.859-15.352-5.859-21.211 0s-5.859 15.352 0 21.211l59.982 59.982c5.802 5.817 15.355 5.908 21.248 0l59.982-59.982c5.859-5.859 5.859-15.352 0-21.211s-15.352-5.859-21.211.001zM136 60c-8.284 0-15 6.716-15 15s6.716 15 15 15 15-6.716 15-15-6.716-15-15-15zm0 60c-8.284 0-15 6.716-15 15s6.716 15 15 15 15-6.716 15-15-6.716-15-15-15zm0 60c-8.284 0-15 6.716-15 15s6.716 15 15 15 15-6.716 15-15-6.716-15-15-15zm0 60c-8.284 0-15 6.716-15 15s6.716 15 15 15 15-6.716 15-15-6.716-15-15-15zM376 90c8.284 0 15-6.716 15-15s-6.716-15-15-15-15 6.716-15 15 6.716 15 15 15zm0 30c-8.284 0-15 6.716-15 15s6.716 15 15 15 15-6.716 15-15-6.716-15-15-15zm0 60c-8.284 0-15 6.716-15 15s6.716 15 15 15 15-6.716 15-15-6.716-15-15-15zm0 60c-8.284 0-15 6.716-15 15s6.716 15 15 15 15-6.716 15-15-6.716-15-15-15zm-51.68-87.48-90-60a15.051 15.051 0 0 0-15.396-.747A14.996 14.996 0 0 0 211 105v120a14.997 14.997 0 0 0 23.321 12.481l90-60c4.175-2.783 6.68-7.471 6.68-12.48s-2.506-9.698-6.681-12.481z" data-original="url(#b)" class=""></path></g></svg>